<svg width="40" height="62" fill="none" xmlns="http://www.w3.org/2000/svg"><g opacity=".5" fill="#149080"><path d="M15.162 37.717c-.3.995-.2 2.19 0 3.583.499 2.587 1.696 5.971 2.394 9.653h5.087c.699-3.582 1.896-6.966 2.494-9.653.3-1.393.3-2.687 0-3.583-.3-.895-.898-1.592-1.995-2.289h-5.985c-1.197.697-1.796 1.394-1.995 2.29zM26.933 57.621H13.167c-1.297 0-2.294.995-2.294 2.19V62h18.354v-2.19c0-1.194-.997-2.189-2.294-2.189zM34.015 2.19h-11.67C22.344.994 21.346 0 20.05 0s-2.294.995-2.294 2.19H6.085L0 27.566c.798-.498 1.596-.995 2.594-.995 1.396 0 2.194.796 2.892 1.393.699.597 1.197.796 1.397.796.299 0 .798-.298 1.496-.796.698-.498 1.596-1.393 2.893-1.393 1.297 0 2.194.796 2.893 1.393.698.498 1.197.796 1.496.796.1 0 .3-.1.598-.199.2-.1.5-.398.898-.597.499-.398 1.097-.995 1.995-1.194.3-.1.599-.1.898-.1 1.297 0 2.194.796 2.893 1.393.698.498 1.197.797 1.496.797.3 0 .798-.299 1.396-.797.699-.597 1.596-1.393 2.893-1.393 1.397 0 2.195.796 2.893 1.393.3.3.598.498.898.598.2.1.399.199.598.199.3 0 .798-.299 1.397-.896.698-.597 1.596-1.393 2.892-1.393.998 0 1.796.497 2.594.995L34.015 2.189zM23.441 53.143h-6.883c-.698 0-1.097.497-1.097 1.094 0 .598.499 1.095 1.097 1.095h6.883c.699 0 1.098-.497 1.098-1.095.1-.597-.4-1.094-1.098-1.094z"/><path d="M20.05 28.76c-.1 0-.3.1-.599.2-.2.1-.399.298-.598.398v3.682h2.294v-3.583c-.499-.398-.898-.697-1.097-.697z"/></g></svg>