<svg width="101" height="77" fill="none" xmlns="http://www.w3.org/2000/svg"><path d="M97.285 18.147s-.903-7.018-3.815-10.126c-3.614-4.01-7.73-4.11-9.538-4.311C70.58 2.707 50.5 2.707 50.5 2.707h-.1s-20.08 0-33.433 1.003c-1.907.2-5.923.3-9.538 4.31-2.81 3.109-3.815 10.127-3.815 10.127s-.903 8.222-.903 16.443v7.72c0 8.221.903 16.443.903 16.443s.904 7.018 3.815 10.126c3.615 4.01 8.434 3.91 10.542 4.311 7.63.802 32.529 1.003 32.529 1.003s20.08 0 33.432-1.003c1.908-.2 5.924-.3 9.538-4.311 2.811-3.108 3.815-10.126 3.815-10.126s.904-8.222.904-16.443v-7.72c0-8.222-.904-16.443-.904-16.443z" fill="#63D1BB"/><path d="M50.4 77c-1.004 0-25.1-.3-32.73-1.003h-.2c-.302-.1-.704-.1-1.105-.2-2.51-.3-7.229-.902-10.843-5.013-3.414-3.61-4.418-10.828-4.518-11.63C1.004 58.853 0 50.63 0 42.41v-7.72c0-8.321.904-16.443.904-16.743v-.1c.1-.803 1.204-7.921 4.517-11.63 4.016-4.412 8.534-4.914 10.743-5.114.2 0 .402 0 .502-.1h.1C30.12 0 50.2 0 50.4 0h.1c.2 0 20.28 0 33.633 1.003h.1c.201 0 .302 0 .503.1 2.208.2 6.726.702 10.742 5.113 3.414 3.61 4.418 10.828 4.518 11.63 0 .301 1.004 8.523 1.004 16.844v7.72c0 8.322-.904 16.443-1.004 16.744v.1c-.1.802-1.205 8.02-4.518 11.63-4.016 4.412-8.534 4.913-10.742 5.113-.201 0-.402 0-.502.1h-.1C70.78 77 50.6 77 50.4 77zm-32.027-6.417c7.53.702 31.324 1.003 32.127 1.003.703 0 20.18 0 33.131-1.003.201 0 .402 0 .603-.1 1.807-.2 4.618-.501 7.228-3.309 1.807-2.005 2.912-6.918 3.113-8.622.1-.501.903-8.422.903-16.142v-7.72c0-7.82-.903-15.64-1.004-16.142-.301-2.406-1.405-6.817-3.112-8.522-2.61-2.908-5.422-3.108-7.229-3.309-.2 0-.401 0-.602-.1C70.379 5.615 50.6 5.615 50.4 5.615h-.1c-.202 0-20.08 0-33.132 1.002-.2 0-.402 0-.602.1-1.808.201-4.619.502-7.229 3.309-1.807 2.005-2.912 6.918-3.112 8.622-.1.602-.904 8.422-.904 16.142v7.72c0 7.72.904 15.641.904 16.142.3 2.407 1.405 6.818 3.112 8.522 2.31 2.607 5.321 3.008 7.53 3.31.602-.101 1.004 0 1.506.1z" fill="#fff"/><path d="M38.452 20.553v35.793L68.371 38.5 38.452 20.553z" fill="#fff"/></svg>