<svg width="192" height="192" viewBox="0 0 192 192" fill="none" xmlns="http://www.w3.org/2000/svg">
<rect width="192" height="192" rx="8" fill="#EEEEEE"/>
<path d="M147.791 104.643C147.275 91.0249 145.209 77.407 145.209 63.7891C145.209 52.693 147.275 41.0925 143.143 30.5008C143.143 29.4921 143.659 27.979 143.659 26.9702C144.692 21.4222 126.615 24.4484 124.032 29.4921C122.483 31.0052 121.45 32.5183 121.966 34.5358C121.966 35.0401 122.483 35.5445 122.483 36.0489C118.867 52.1886 114.218 68.3284 109.053 83.9638C106.987 90.0162 104.405 96.0686 102.339 102.121C99.2397 96.573 96.1407 91.0249 93.5581 84.9725C86.327 67.3197 80.1289 49.6668 71.3483 33.0227C72.3813 25.4571 54.82 25.9615 51.2045 33.0227C47.0724 41.5969 47.5889 50.1712 49.1384 59.7541C50.688 70.3459 51.2045 80.4332 51.2045 91.0249C51.2045 111.2 53.2705 131.374 53.2705 151.549C51.2045 153.567 50.6879 156.088 52.754 158.61C53.787 159.619 54.82 160.628 55.853 161.636C60.5016 165.167 73.9308 162.141 73.9308 155.08C73.9308 133.896 72.3813 113.217 71.8648 92.0336C71.8648 90.0162 71.8648 87.9987 71.8648 85.9813C72.3813 86.4856 72.3813 87.4943 72.8978 87.9987C75.9968 96.0686 79.6124 104.138 84.261 111.704C88.9096 119.27 90.9756 127.339 93.5581 135.409C92.5251 136.418 92.0086 137.931 92.5251 138.94C92.5251 139.949 93.0416 140.453 94.0746 140.957C97.1737 143.984 103.888 142.47 106.987 140.957C108.537 140.453 110.086 139.444 111.119 138.94C112.669 137.931 115.768 135.409 114.735 132.887C114.735 132.383 114.218 131.879 114.218 131.374C116.801 124.818 117.834 118.261 119.384 111.2C120.933 104.138 123.516 97.0773 126.098 90.0162C126.615 93.0424 126.615 96.573 127.131 99.5992C128.164 112.713 127.131 125.322 127.131 138.435C127.131 142.975 127.648 146.505 128.164 151.045C128.681 152.558 130.23 160.123 129.714 160.628C126.615 163.654 127.648 167.184 131.78 167.689C136.428 168.698 142.626 167.184 146.242 164.158C152.44 158.61 149.341 149.532 148.308 142.47C145.209 130.366 147.791 116.748 147.791 104.643Z" fill="black"/>
</svg>
