<svg width="124" height="34" fill="none" xmlns="http://www.w3.org/2000/svg"><path d="M1218.8 0c-15.65 0-15.65 14-31.19 14-15.54 0-15.65-14-31.2-14-15.54 0-15.65 14-31.19 14-15.65 0-15.65-14-31.31-14-15.65 0-15.65 14-31.19 14-15.65 0-15.65-14-31.2-14-15.65 0-15.65 14-31.19 14-15.547 0-15.982-14-31.526-14-15.652 0-15.652 14-31.195 14-15.544 0-15.761-14-31.305-14-15.652 0-15.652 14-31.195 14-15.653 0-15.653-14-31.305-14s-15.652 14-31.195 14c-15.653 0-15.652-14-31.196-14C765.87 0 765.652 14 750 14c-15.652 0-15.652-14-31.196-14-15.652 0-15.652 14-31.195 14-15.653 0-15.653-14-31.305-14s-15.652 14-31.195 14c-15.653 0-15.652-14-31.196-14-15.652 0-15.652 14-31.196 14-15.652 0-15.652-14-31.195-14-15.652 0-15.652 14-31.305 14-15.652 0-15.652-14-31.304-14s-15.652 14-31.304 14-15.652-14-31.305-14C390.652 0 390.652 14 375 14S359.348 0 343.696 0c-15.653 0-15.653 14-31.305 14S296.739 0 281.087 0s-15.652 14-31.196 14c-15.652 0-15.652-14-31.304-14s-15.652 14-31.304 14C171.63 14 171.63 0 155.978 0s-15.652 14-31.304 14S109.022 0 93.37 0C78.152 0 78.152 14 62.5 14 46.848 14 46.848 0 31.304 0 15.761 0 15.652 14 0 14v20h1250V14c-15.65 0-15.65-14-31.2-14z" fill="#fff"/></svg>